<?xml version="1.0" standalone="no"?>
<!DOCTYPE svg PUBLIC "-//W3C//DTD SVG 20010904//EN"
 "http://www.w3.org/TR/2001/REC-SVG-20010904/DTD/svg10.dtd">
<svg version="1.0" xmlns="http://www.w3.org/2000/svg"
 width="14590.000000pt" height="10424.000000pt" viewBox="0 0 14590.000000 10424.000000"
 preserveAspectRatio="xMidYMid meet">

<g transform="translate(0.000000,10424.000000) scale(0.100000,-0.100000)"
fill="#000000" stroke="none">
<path d="M33935 104198 c-3 -7 -6 -1422 -8 -3144 -2 -2995 -3 -3133 -20 -3152
-12 -13 -37 -22 -78 -26 -34 -4 -85 -18 -115 -32 -30 -14 -90 -29 -136 -35
-47 -6 -107 -21 -137 -35 -30 -13 -88 -28 -130 -33 -42 -5 -101 -20 -133 -35
-31 -14 -92 -30 -135 -35 -43 -5 -103 -21 -133 -35 -33 -15 -88 -29 -137 -35
-46 -5 -99 -18 -120 -28 -45 -24 -68 -29 -162 -43 -40 -5 -91 -20 -114 -31
-23 -12 -84 -28 -135 -36 -52 -7 -111 -22 -131 -32 -43 -22 -66 -27 -162 -41
-40 -6 -83 -17 -95 -24 -27 -19 -82 -33 -172 -46 -40 -5 -90 -19 -111 -29 -21
-11 -80 -27 -132 -36 -52 -8 -119 -26 -149 -39 -30 -14 -86 -27 -125 -31 -42
-4 -97 -19 -137 -36 -58 -25 -79 -29 -162 -29 -53 0 -95 -3 -95 -7 6 -36 -25
-50 -149 -68 -52 -8 -104 -20 -116 -28 -29 -18 -90 -34 -161 -43 -33 -3 -71
-12 -85 -19 -48 -24 -116 -43 -180 -50 -36 -4 -85 -16 -109 -27 -45 -20 -158
-48 -199 -48 -13 0 -47 -11 -75 -24 -29 -14 -95 -32 -147 -40 -52 -8 -113 -24
-136 -35 -23 -11 -78 -25 -123 -30 -46 -6 -104 -21 -134 -35 -29 -14 -89 -30
-137 -36 -47 -6 -98 -18 -115 -27 -45 -22 -82 -33 -160 -43 -38 -5 -95 -20
-126 -34 -31 -14 -94 -30 -140 -36 -46 -6 -107 -22 -135 -35 -28 -14 -87 -29
-134 -34 -46 -6 -100 -19 -119 -29 -38 -20 -104 -37 -186 -47 -27 -4 -65 -15
-85 -25 -20 -10 -65 -23 -100 -30 -36 -6 -75 -16 -87 -21 l-23 -9 0 -1331 c0
-1244 1 -1333 17 -1360 19 -33 41 -40 168 -57 44 -6 101 -20 127 -32 26 -11
94 -27 151 -34 57 -8 126 -24 153 -35 27 -12 84 -26 126 -31 87 -10 150 -25
190 -46 15 -8 73 -20 130 -28 57 -7 124 -22 149 -34 25 -12 86 -26 135 -32
100 -12 113 -15 169 -40 22 -10 83 -23 135 -30 52 -7 120 -22 150 -35 30 -13
97 -28 149 -34 54 -7 118 -22 154 -37 36 -15 94 -29 146 -34 49 -5 112 -20
146 -34 33 -13 103 -29 155 -35 52 -7 115 -21 140 -32 25 -12 92 -27 150 -35
58 -8 123 -23 145 -33 63 -29 75 -32 168 -42 49 -5 112 -19 145 -33 31 -13
100 -29 152 -36 52 -7 122 -23 155 -35 33 -13 100 -28 149 -35 49 -6 114 -22
145 -35 31 -12 83 -26 116 -30 87 -9 157 -25 183 -42 13 -8 71 -20 131 -28 59
-8 129 -24 155 -36 26 -11 93 -27 149 -34 56 -8 123 -23 148 -34 25 -11 94
-27 153 -36 58 -8 127 -24 152 -36 26 -11 94 -27 152 -35 58 -7 123 -22 146
-34 23 -11 80 -25 127 -30 87 -11 132 -22 186 -46 17 -8 67 -19 110 -24 107
-13 132 -19 176 -42 21 -10 77 -23 125 -29 117 -13 154 -24 183 -55 l24 -26 5
-34366 c3 -18902 9 -34373 13 -34379 7 -10 416 -13 1991 -13 1875 0 1985 1
2005 17 l21 18 3 4800 2 4800 45 23 45 22 4090 -2 c2284 -2 4098 -7 4108 -12
10 -4 23 -18 30 -30 9 -16 13 -1060 15 -4812 2 -4436 3 -4793 19 -4805 13 -12
301 -14 1748 -17 l1732 -2 27 21 26 20 0 2712 c0 1492 3 2729 6 2750 5 28 14
42 35 52 24 13 501 15 3651 15 l3623 1 26 23 c15 13 32 32 38 44 17 32 16
11282 -1 11305 -12 16 -122 17 -1540 19 -839 2 -1530 7 -1535 11 -4 5 -9 244
-11 532 -2 488 -1 524 15 540 15 15 19 46 25 199 4 100 12 226 18 281 6 55 11
120 12 145 0 25 9 59 20 78 14 23 23 64 29 135 13 137 22 187 41 217 16 24 34
136 45 268 3 34 9 62 14 62 15 0 36 53 50 125 7 39 21 81 31 95 10 14 25 60
33 103 8 42 24 90 35 105 11 15 27 63 36 106 9 44 25 91 35 105 22 31 49 114
49 154 0 16 13 44 29 65 16 20 33 54 36 75 4 21 17 45 30 56 14 10 26 34 30
57 4 21 19 57 34 79 16 22 31 54 35 70 4 17 20 48 35 70 16 22 32 55 36 73 3
18 18 46 31 61 14 16 31 50 38 75 8 26 28 62 45 81 20 24 31 46 31 67 0 24 14
45 64 98 45 48 65 78 70 104 4 21 22 54 42 75 23 26 34 48 34 68 0 22 12 42
43 74 100 101 155 170 161 203 4 23 26 54 64 93 123 128 139 149 146 185 6 32
68 99 473 503 418 418 469 465 497 465 27 0 49 16 137 100 80 78 113 103 143
110 37 8 63 28 131 97 17 17 50 36 74 43 39 10 130 80 154 117 4 7 26 16 49
19 41 7 82 36 144 101 24 25 40 33 66 33 26 0 42 8 68 35 25 26 42 35 66 35
22 0 45 11 73 34 22 18 57 37 78 41 21 3 52 19 68 35 17 15 47 31 68 34 20 4
53 20 71 36 23 21 44 30 68 30 26 0 42 8 68 35 26 27 42 35 68 35 48 0 110 19
152 47 19 13 43 23 53 23 23 0 79 29 93 48 6 8 28 16 50 17 58 4 118 22 148
46 15 12 43 22 64 24 70 5 197 35 222 54 14 10 46 21 71 24 59 8 133 33 137
47 2 5 16 10 32 10 61 0 294 40 309 53 14 13 202 40 349 50 29 2 60 11 70 19
11 10 46 18 97 21 44 3 152 11 240 17 199 15 1152 8 1305 -9 58 -7 119 -20
135 -29 19 -10 68 -19 135 -23 215 -15 325 -29 365 -49 22 -10 85 -26 140 -36
107 -17 107 -17 145 -39 14 -8 37 -15 52 -15 15 0 56 -7 93 -15 36 -9 70 -13
74 -10 5 2 20 -4 34 -16 27 -20 120 -49 161 -49 13 0 35 -9 49 -20 27 -22 120
-50 162 -50 13 0 32 -8 42 -19 22 -23 105 -51 151 -51 22 0 47 -10 71 -29 20
-16 52 -32 71 -36 19 -4 48 -18 65 -30 16 -13 46 -27 65 -33 19 -5 53 -21 74
-36 21 -14 46 -26 55 -26 9 0 41 -16 71 -35 30 -19 62 -35 71 -35 9 0 34 -12
55 -27 21 -14 60 -34 85 -44 26 -10 67 -32 92 -48 25 -17 54 -31 65 -31 10 0
39 -15 62 -34 24 -19 60 -37 79 -41 24 -5 55 -26 96 -63 40 -38 76 -61 105
-70 29 -8 63 -30 94 -60 62 -60 95 -82 124 -82 14 0 50 -26 96 -69 53 -49 84
-70 109 -74 26 -4 52 -22 95 -64 250 -246 293 -283 328 -283 18 0 90 -67 280
-255 218 -218 256 -261 261 -292 5 -28 32 -63 142 -177 75 -77 150 -155 168
-172 19 -19 34 -46 39 -70 5 -28 25 -57 76 -111 45 -48 68 -80 68 -96 0 -27
40 -85 94 -137 25 -24 38 -46 43 -74 5 -30 21 -55 70 -106 49 -52 63 -74 63
-98 0 -20 11 -42 35 -68 19 -22 37 -54 41 -72 3 -17 19 -49 34 -70 15 -21 33
-56 40 -77 7 -22 18 -48 25 -57 10 -15 13 -15 27 10 9 15 19 42 23 60 4 18 20
47 35 64 16 17 32 48 35 69 4 23 20 52 41 74 23 25 34 46 34 67 0 23 15 46 64
99 45 49 66 80 71 106 5 26 25 57 69 105 47 50 65 78 70 105 5 30 23 55 84
118 100 102 122 132 122 164 1 20 41 67 170 200 135 139 171 182 176 210 6 28
42 70 195 222 150 151 194 189 222 194 27 5 72 43 210 176 128 123 183 169
200 169 20 0 66 26 87 50 3 3 42 40 87 83 64 60 88 77 111 77 22 0 46 16 99
64 48 44 82 68 112 76 30 8 61 29 104 71 40 38 69 59 85 59 22 0 61 16 72 29
18 23 67 51 87 51 14 0 42 13 62 29 20 16 61 39 90 50 30 11 63 29 75 39 12
10 39 24 61 30 23 6 50 20 61 30 11 11 44 27 73 37 29 9 62 26 73 37 10 10 33
21 51 25 18 3 50 18 72 34 22 15 56 30 76 33 20 4 49 20 67 37 24 24 38 30 59
26 33 -6 142 29 166 54 10 11 31 19 49 19 44 0 107 20 148 47 19 13 46 23 60
23 40 0 130 27 149 44 10 9 24 16 32 16 39 0 199 34 234 50 47 21 201 50 265
50 26 0 63 9 84 20 44 22 217 50 311 50 61 0 113 12 125 29 21 32 1131 56
1440 31 80 -6 183 -14 230 -17 55 -4 91 -11 103 -21 12 -11 53 -18 134 -24 65
-4 133 -13 153 -18 19 -5 50 -10 68 -10 18 0 44 -7 57 -16 14 -9 51 -20 82
-24 32 -4 103 -14 158 -21 55 -7 102 -16 105 -20 11 -14 49 -27 115 -40 39 -7
81 -21 94 -31 12 -9 39 -20 60 -23 20 -3 64 -13 98 -22 35 -8 69 -13 77 -10 8
3 25 -2 38 -12 40 -31 65 -41 133 -50 46 -7 73 -16 86 -30 11 -11 42 -27 69
-35 28 -8 57 -22 65 -30 19 -19 113 -46 158 -46 23 0 41 -7 49 -18 22 -30 61
-52 93 -52 19 0 39 -9 53 -25 21 -22 77 -45 110 -45 6 0 12 -3 12 -7 0 -14 64
-51 99 -58 19 -4 48 -20 65 -36 18 -17 47 -32 69 -36 22 -3 53 -19 73 -37 20
-17 40 -32 45 -32 5 -1 20 -2 32 -3 14 0 46 -22 74 -49 62 -60 96 -82 125 -82
14 0 51 -25 95 -65 47 -41 85 -66 106 -70 21 -4 54 -26 87 -57 63 -59 107 -88
135 -88 11 0 50 -30 87 -66 116 -112 158 -144 185 -144 21 0 59 -32 172 -142
313 -309 856 -860 857 -871 1 -7 2 -22 3 -34 1 -15 40 -64 106 -132 86 -89
105 -114 105 -139 0 -23 15 -46 70 -105 53 -57 70 -82 70 -104 0 -22 16 -47
65 -100 42 -46 68 -83 72 -105 3 -18 21 -53 40 -77 18 -24 33 -53 33 -65 0
-23 25 -66 47 -79 7 -4 19 -30 27 -58 9 -28 27 -64 41 -80 14 -17 28 -43 31
-57 9 -43 26 -71 39 -66 16 7 35 49 35 78 0 13 9 31 21 42 28 25 49 67 49 97
0 13 15 37 35 57 27 26 35 42 35 70 0 28 7 43 33 66 52 46 94 106 101 142 4
23 27 57 70 103 45 49 65 79 69 105 4 26 24 54 71 104 47 51 67 79 72 107 4
24 20 51 43 74 20 19 80 81 134 138 79 84 97 108 97 133 0 28 47 78 398 428
347 347 402 398 435 404 37 7 87 50 279 239 28 27 46 37 71 37 27 0 44 11 97
65 51 52 73 67 104 72 29 5 55 21 105 68 51 49 75 64 107 69 27 5 52 18 70 37
16 17 47 35 73 41 31 8 62 28 106 69 50 48 69 59 96 59 24 0 43 9 69 34 23 23
48 36 74 39 25 3 49 16 70 36 22 21 42 31 63 31 21 0 43 11 69 35 26 23 49 35
69 35 41 0 125 27 155 49 14 10 43 24 65 31 22 7 54 23 70 35 17 12 67 29 114
38 52 11 91 24 102 35 9 11 45 24 80 31 74 15 119 30 136 47 7 7 45 18 85 24
40 7 86 22 103 33 28 20 55 26 203 47 36 4 72 16 83 26 11 9 43 21 72 25 165
24 191 29 206 43 10 9 33 16 52 16 19 0 72 7 119 15 47 8 124 15 171 15 82 0
149 13 149 29 0 4 60 14 133 22 98 10 282 14 717 14 628 0 804 -9 865 -47 21
-13 50 -18 100 -18 87 0 345 -29 365 -41 34 -21 60 -28 164 -44 61 -10 116
-23 123 -31 8 -7 28 -16 46 -18 184 -30 220 -38 244 -55 16 -10 60 -25 98 -32
39 -7 84 -23 101 -34 17 -12 65 -27 105 -34 41 -8 81 -21 89 -30 16 -17 123
-51 163 -51 13 0 39 -11 57 -25 19 -14 53 -31 75 -37 22 -6 49 -19 60 -29 11
-9 42 -24 68 -33 26 -9 60 -25 75 -36 32 -24 115 -50 158 -50 21 0 40 -10 64
-35 27 -28 42 -35 71 -35 25 0 43 -6 51 -18 31 -41 111 -100 151 -111 23 -6
56 -23 72 -39 17 -16 48 -32 70 -36 23 -5 55 -22 77 -42 25 -23 48 -34 68 -34
23 0 45 -14 96 -64 50 -48 75 -65 103 -70 26 -4 52 -19 82 -49 122 -119 171
-157 198 -157 22 0 56 -27 167 -135 114 -111 146 -136 176 -141 32 -6 79 -49
361 -330 285 -284 326 -329 332 -361 5 -31 30 -62 140 -176 107 -111 136 -146
141 -175 7 -36 25 -58 157 -196 35 -37 47 -57 47 -80 0 -24 15 -47 70 -106 55
-59 70 -82 70 -106 0 -21 10 -40 34 -63 20 -20 36 -46 39 -67 3 -19 22 -57 41
-83 20 -27 36 -56 36 -65 0 -28 26 -69 74 -116 38 -36 46 -51 46 -80 0 -28 8
-44 35 -70 24 -24 36 -45 41 -76 4 -28 16 -51 35 -70 25 -24 29 -35 29 -81 0
-29 4 -53 9 -53 5 0 11 -13 14 -29 3 -15 17 -41 30 -57 14 -16 28 -45 32 -64
4 -19 18 -49 30 -66 13 -16 26 -48 29 -70 11 -68 36 -143 51 -151 9 -5 21 -43
30 -91 10 -49 26 -97 40 -118 14 -21 26 -58 31 -92 6 -54 27 -111 45 -122 4
-3 10 -23 13 -45 18 -145 39 -235 56 -235 7 0 11 -23 29 -162 5 -38 17 -80 27
-95 18 -28 24 -65 44 -278 8 -85 17 -128 30 -145 13 -19 19 -53 23 -125 24
-452 28 -594 25 -1002 -3 -451 -3 -462 -24 -490 l-21 -28 -1502 -5 c-1320 -4
-1503 -7 -1511 -20 -6 -9 -10 -2128 -10 -5682 0 -5593 0 -5667 19 -5678 14 -7
1159 -10 3626 -10 2467 0 3612 -3 3626 -10 19 -11 19 -52 19 -2764 0 -2608 1
-2755 18 -2775 l17 -21 1873 2 1874 3 19 24 c19 23 19 112 20 4790 1 2621 4
4777 8 4791 4 15 21 32 41 42 33 17 251 18 4116 18 l4080 0 22 -20 22 -21 0
-4792 c0 -2636 4 -4797 8 -4802 25 -35 28 -35 1912 -35 l1849 0 26 23 25 22 3
2745 c3 1946 7 2761 15 2800 8 40 11 8689 11 31605 1 17353 5 31564 9 31580
11 39 38 52 146 65 49 6 105 19 125 29 34 17 103 32 214 46 26 4 69 16 95 27
26 12 91 27 144 34 54 7 126 24 160 37 35 14 104 30 153 35 50 6 111 20 136
31 25 11 95 28 155 37 60 9 126 25 148 36 22 11 77 24 130 30 50 5 114 19 141
30 52 21 91 30 210 47 39 6 89 20 113 31 24 12 89 27 154 35 61 8 121 21 133
29 24 16 167 46 219 46 17 0 54 11 83 24 32 15 89 29 150 37 54 6 123 22 153
35 30 13 104 30 163 39 60 8 123 23 140 32 34 18 150 42 207 43 19 0 49 7 65
16 45 24 81 33 179 44 48 6 107 19 130 29 60 27 115 41 166 41 45 0 105 15
171 44 20 8 76 20 125 26 49 6 109 20 134 31 24 11 76 24 115 30 84 12 164 31
222 53 24 9 83 20 131 26 52 6 112 20 143 34 32 14 94 28 154 35 55 7 116 21
135 30 42 22 68 28 173 41 43 5 99 19 125 30 26 12 93 28 148 35 56 8 123 24
150 36 27 11 85 25 129 31 130 16 151 24 166 61 12 26 14 257 14 1354 0 1163
-2 1324 -15 1336 -8 8 -44 19 -79 25 -35 6 -80 20 -101 31 -21 11 -75 25 -120
31 -88 12 -94 14 -157 42 -23 10 -77 23 -120 29 -43 6 -104 22 -136 35 -32 14
-90 29 -130 34 -80 10 -92 13 -155 42 -24 11 -73 24 -110 28 -84 10 -119 19
-157 41 -16 10 -70 23 -118 29 -50 6 -110 21 -140 35 -29 13 -89 28 -134 35
-46 6 -106 21 -135 34 -29 13 -91 29 -138 36 -47 7 -101 21 -120 32 -20 12
-74 26 -127 33 -50 8 -118 25 -150 39 -32 13 -96 30 -142 35 -50 7 -98 19
-119 31 -19 12 -77 27 -135 36 -56 9 -119 25 -140 36 -21 10 -78 26 -125 33
-114 19 -152 32 -152 55 0 16 -11 19 -102 22 -81 2 -113 8 -148 25 -25 12 -90
29 -145 38 -55 10 -116 26 -136 36 -20 10 -80 25 -133 34 -54 8 -115 24 -136
35 -22 11 -71 25 -111 30 -94 14 -117 19 -160 41 -20 10 -77 25 -126 32 -49 8
-111 25 -138 37 -27 12 -81 26 -120 31 -78 10 -129 24 -163 45 -12 8 -59 19
-104 25 -46 6 -114 23 -153 38 -38 15 -99 31 -134 34 -35 4 -89 18 -120 32
-31 13 -101 32 -156 40 -55 9 -110 23 -123 31 -13 9 -71 24 -128 34 -57 10
-119 26 -137 35 -17 9 -77 25 -133 35 -55 10 -121 27 -145 38 -24 11 -63 23
-86 27 -23 3 -48 14 -55 22 -37 46 -37 15 -38 3202 0 1702 -3 3097 -6 3100 -3
3 -17522 7 -38930 9 -31141 2 -38926 0 -38929 -10z m47684 -1013 c16 -8 31
-22 35 -30 3 -9 6 -957 6 -2105 l0 -2089 -22 -15 c-20 -14 -86 -16 -524 -16
-276 0 -516 3 -534 6 -21 5 -38 17 -51 38 -18 30 -19 88 -19 2094 0 2239 -3
2114 52 2125 13 2 249 5 526 6 424 1 507 -1 531 -14z m-9073 -20 c12 -16 14
-312 12 -2107 l-3 -2087 -22 -23 -23 -22 -505 3 c-278 1 -518 6 -533 10 -14 4
-35 21 -44 37 -16 28 -18 150 -18 2084 0 1130 0 2063 0 2073 0 9 9 26 20 37
20 20 30 20 561 18 523 -3 541 -4 555 -23z m-15399 -9 l28 -24 3 -2044 c2
-1392 0 -2054 -7 -2079 -6 -20 -20 -44 -32 -55 -20 -18 -45 -19 -525 -22 -553
-3 -555 -3 -585 56 -12 23 -14 339 -17 1987 -2 1078 0 2006 3 2062 10 155 -42
143 587 143 l517 0 28 -24z m1641 4 l22 -21 0 -2074 0 -2074 -24 -28 -24 -28
-510 0 c-503 0 -511 0 -539 21 -15 11 -34 32 -40 45 -10 19 -13 464 -13 2074
1 2202 -2 2073 51 2094 14 6 234 10 540 10 505 1 516 1 537 -19z m1632 3 c16
-9 31 -26 34 -37 3 -12 6 -941 6 -2064 0 -1865 -1 -2046 -16 -2071 -34 -58
-16 -56 -570 -59 l-510 -3 -27 25 -27 25 0 2081 c0 2067 0 2080 20 2100 19 19
33 20 541 20 469 0 524 -2 549 -17z m1651 0 c15 -9 33 -30 39 -47 7 -20 10
-684 10 -2065 0 -2030 0 -2036 -20 -2056 -20 -19 -34 -20 -540 -23 l-520 -3
-25 25 -25 25 2 2054 c3 2217 0 2076 53 2097 11 5 240 9 508 9 443 1 492 -1
518 -16z m1659 -3 c20 -20 20 -33 20 -2087 0 -1138 -3 -2078 -6 -2091 -14 -51
-25 -52 -554 -52 -549 0 -548 0 -575 64 -13 31 -15 307 -15 2076 0 1375 3
2048 10 2060 26 49 31 49 583 50 504 0 518 -1 537 -20z m5529 -4 l21 -19 0
-2058 c0 -1283 -4 -2067 -10 -2083 -21 -57 -11 -56 -568 -57 -572 0 -554 -2
-566 69 -3 20 -6 956 -6 2078 l0 2041 21 27 21 27 533 -3 c508 -3 534 -4 554
-22z m1630 5 c16 -12 26 -34 32 -67 12 -77 11 -4041 -2 -4087 -7 -26 -21 -44
-42 -57 -31 -19 -54 -20 -530 -20 -549 0 -544 -1 -566 61 -8 23 -11 606 -11
2088 l0 2055 27 23 28 22 520 0 c489 1 521 -1 544 -18z m3321 -3 c20 -22 20
-22 20 -2087 0 -1136 -3 -2076 -6 -2089 -14 -51 -25 -52 -546 -52 -308 0 -497
4 -521 11 -26 7 -44 21 -57 42 -20 31 -20 69 -20 2077 0 1125 3 2056 7 2069
13 49 29 50 585 51 l517 0 21 -22z m1619 7 c16 -8 31 -22 35 -30 3 -9 6 -941
6 -2072 0 -1927 -1 -2057 -17 -2084 -11 -18 -31 -33 -53 -39 -21 -6 -235 -10
-523 -10 -418 0 -492 2 -517 15 -20 10 -30 23 -30 38 0 12 0 954 0 2092 l0
2070 21 18 c20 16 61 17 536 17 432 0 519 -2 542 -15z m7417 -7 c19 -13 36
-36 43 -59 8 -26 11 -619 11 -2056 l0 -2020 -26 -24 -26 -24 -519 -3 c-510 -2
-519 -2 -539 18 -20 20 -20 21 -18 2086 l3 2066 24 19 c22 18 46 19 519 19
495 0 496 0 528 -22z m1665 5 c15 -9 31 -23 34 -31 11 -28 6 -4108 -5 -4139
-23 -65 -19 -64 -583 -61 l-509 3 -23 27 c-13 15 -26 47 -30 70 -3 24 -5 956
-3 2071 l3 2029 28 24 28 24 516 0 c466 0 518 -2 544 -17z m1668 6 c17 -6 36
-19 41 -29 14 -27 14 -4107 -1 -4148 -21 -61 -33 -62 -580 -62 -528 0 -539 1
-553 52 -3 13 -6 951 -6 2084 l0 2061 21 27 20 26 513 0 c349 0 523 -4 545
-11z m1608 1 c17 -6 35 -22 42 -36 8 -18 11 -563 11 -2073 0 -1752 -2 -2050
-14 -2067 -14 -18 -31 -19 -546 -19 l-532 0 -19 24 c-19 23 -19 64 -17 2073
l3 2050 33 29 32 29 489 0 c315 0 499 -4 518 -10z m-41966 -13140 c27 -8 41
-19 53 -44 15 -31 16 -1222 16 -14281 0 -12574 -2 -14249 -15 -14275 -13 -25
-21 -29 -77 -35 -93 -9 -8181 -1 -8195 8 -10 7 -13 2877 -13 14300 0 7861 4
14297 8 14303 4 6 16 16 27 22 27 15 8142 17 8196 2z m61722 -1 c12 -7 25 -17
29 -23 4 -6 8 -6443 8 -14304 l0 -14292 -26 -10 c-17 -7 -1462 -9 -4124 -8
-3920 3 -4100 4 -4117 21 -17 17 -18 603 -21 14270 -2 10366 0 14262 8 14290
8 29 20 42 43 52 27 12 656 14 4105 15 3051 0 4079 -3 4095 -11z m-52039 -781
l36 -42 0 -15956 c0 -12397 3 -15959 12 -15968 9 -9 976 -12 4289 -12 3891 0
4277 1 4283 16 3 9 6 7199 6 15979 l0 15964 24 28 24 28 1601 0 1600 0 23 -23
23 -23 5 -15982 5 -15982 4245 0 4245 0 5 15975 c4 12608 8 15980 17 15996 7
12 27 27 44 33 23 8 479 11 1594 11 1115 0 1571 -3 1594 -11 17 -6 37 -21 44
-33 9 -16 13 -3388 17 -15996 l5 -15975 4794 -3 c3536 -1 4797 1 4807 9 12 10
14 2561 14 15958 0 10584 3 15958 10 15982 7 25 20 41 43 53 30 16 142 17
1639 14 l1608 -3 27 -28 28 -27 5 -15978 c3 -8787 6 -15978 8 -15979 1 -2
4067 -3 9035 -3 7312 0 9037 -2 9051 -13 9 -7 21 -30 26 -52 6 -24 10 -1137
10 -2758 l0 -2718 -25 -24 -24 -25 -37854 0 c-37257 0 -37855 0 -37878 19
l-24 19 0 2745 0 2746 21 28 21 28 8794 5 8794 5 5 15960 c3 8778 9 15968 14
15977 4 10 26 31 49 48 l41 30 1592 0 1592 0 36 -42z"/>
<path d="M38908 89113 c-17 -4 -18 -651 -18 -13404 0 -7369 0 -13402 0 -13406
0 -5 1454 -8 3232 -8 l3232 0 7 25 c9 31 11 26762 3 26784 -6 15 -298 16
-3223 15 -1769 -1 -3224 -3 -3233 -6z"/>
<path d="M100607 89113 c-9 -8 -7 -26748 2 -26788 l6 -30 3233 -3 3232 -2 0
13409 0 13409 -22 6 c-31 8 -6443 8 -6451 -1z"/>
<path d="M60545 46271 c-179 -5 -226 -9 -245 -22 -14 -9 -54 -19 -90 -22 -258
-23 -340 -37 -340 -58 0 -5 -15 -9 -32 -9 -72 -1 -200 -28 -228 -49 -16 -11
-42 -21 -57 -21 -58 0 -199 -31 -223 -48 -14 -10 -41 -22 -60 -25 -99 -19
-124 -26 -149 -45 -15 -11 -42 -23 -61 -27 -19 -4 -52 -20 -72 -36 -25 -20
-48 -29 -72 -29 -40 0 -146 -37 -146 -50 0 -5 -23 -16 -51 -24 -29 -9 -66 -27
-84 -40 -17 -14 -48 -28 -69 -31 -20 -4 -49 -20 -64 -35 -16 -15 -44 -31 -62
-35 -19 -3 -53 -19 -75 -35 -22 -15 -58 -33 -80 -39 -26 -7 -63 -32 -105 -71
-50 -46 -72 -60 -96 -60 -24 0 -45 -13 -95 -61 -73 -69 -89 -79 -121 -79 -16
0 -56 -31 -127 -99 -81 -77 -112 -100 -139 -105 -41 -6 -37 -2 -472 -436 -383
-382 -427 -431 -436 -478 -5 -26 -21 -51 -54 -82 -85 -83 -140 -152 -152 -193
-8 -26 -32 -63 -65 -97 -34 -36 -58 -71 -69 -104 -9 -28 -29 -65 -45 -84 -16
-18 -29 -42 -29 -53 0 -26 -16 -56 -51 -94 -20 -20 -29 -41 -29 -62 0 -23 -9
-41 -29 -60 -18 -18 -31 -43 -35 -70 -4 -22 -17 -49 -28 -60 -26 -24 -48 -66
-48 -95 -1 -13 -14 -39 -30 -58 -20 -22 -30 -45 -30 -66 0 -17 -7 -37 -16 -44
-8 -8 -20 -22 -25 -32 -13 -25 -39 -123 -39 -149 0 -11 -11 -35 -25 -53 -14
-18 -28 -48 -32 -67 -3 -19 -15 -46 -26 -60 -17 -24 -46 -150 -51 -225 -1 -17
-11 -44 -23 -60 -23 -34 -43 -125 -43 -199 0 -39 -5 -56 -20 -70 -11 -10 -22
-32 -24 -49 -3 -17 -12 -76 -20 -131 -9 -56 -16 -126 -16 -157 0 -54 1 -56 31
-67 43 -15 1534 -15 1575 -1 16 6 37 22 47 35 19 27 47 157 47 223 0 23 4 42
9 42 15 0 42 68 52 133 6 34 17 69 25 78 22 24 54 118 54 159 1 24 10 46 30
70 17 19 30 46 30 60 0 14 13 44 29 66 16 21 33 56 39 76 6 21 24 55 41 75 20
24 31 49 31 68 0 22 10 41 35 65 27 26 35 42 35 70 0 31 9 45 70 105 59 59 70
75 70 103 0 30 16 50 132 170 277 287 446 452 472 461 14 6 26 17 26 24 0 7
38 50 84 95 66 65 90 82 113 82 23 0 48 16 107 70 57 52 84 70 105 70 21 0 46
17 99 65 55 51 77 65 101 65 21 0 43 11 70 35 28 26 48 35 73 35 26 0 42 8 68
35 24 25 43 35 64 35 43 0 126 26 157 49 14 11 55 25 90 31 35 7 83 23 105 35
23 12 73 28 110 35 38 6 83 22 99 33 22 16 51 24 105 28 204 17 296 31 330 52
34 22 42 22 471 22 423 0 438 -1 459 -20 18 -16 47 -22 149 -32 218 -20 255
-26 281 -44 27 -19 164 -49 222 -49 22 0 41 -7 53 -20 19 -21 106 -50 153 -50
17 0 37 -6 44 -13 25 -25 63 -45 100 -51 20 -4 38 -13 41 -20 3 -8 32 -24 64
-36 32 -12 78 -35 102 -51 25 -16 54 -29 65 -29 12 0 37 -14 56 -30 19 -17 54
-35 77 -41 27 -7 61 -29 99 -65 35 -32 77 -60 104 -69 29 -10 70 -38 114 -80
52 -49 77 -65 98 -65 34 0 128 -82 128 -111 0 -11 7 -19 18 -19 12 0 355 -330
468 -452 4 -4 8 -18 9 -30 1 -13 3 -28 4 -34 0 -6 30 -42 66 -80 36 -38 67
-80 71 -94 10 -43 26 -68 80 -128 36 -38 55 -69 59 -93 3 -20 19 -50 35 -67
15 -17 31 -46 35 -64 8 -37 35 -88 47 -88 4 0 14 -24 23 -54 9 -29 27 -63 40
-76 16 -15 25 -35 25 -54 0 -40 25 -120 49 -160 11 -17 24 -49 30 -71 6 -22
22 -52 36 -67 19 -20 25 -38 25 -70 0 -69 26 -187 46 -210 11 -12 20 -37 20
-61 2 -35 8 -47 40 -73 21 -18 51 -35 67 -38 16 -3 370 -6 786 -6 591 0 761 3
773 13 15 11 15 24 4 122 -6 61 -19 124 -28 140 -14 27 -21 67 -47 272 -4 29
-14 60 -22 70 -9 10 -22 50 -29 88 -14 75 -34 130 -50 140 -5 3 -10 21 -10 38
0 48 -19 108 -45 142 -12 17 -25 51 -28 75 -9 73 -18 103 -43 136 -13 18 -28
51 -33 74 -5 23 -21 54 -35 69 -18 19 -26 38 -26 62 0 27 -8 43 -35 69 -27 26
-35 42 -35 70 0 28 -8 44 -35 70 -27 26 -35 42 -35 70 0 28 -8 44 -35 70 -26
25 -35 42 -35 67 0 24 -10 44 -35 72 -19 21 -35 46 -35 56 0 28 -31 85 -46 85
-8 0 -19 12 -24 26 -6 14 -23 37 -40 51 -23 18 -30 33 -30 59 0 28 -11 46 -70
108 -56 58 -70 80 -70 104 0 26 -19 50 -107 143 -60 62 -120 124 -136 138 -17
15 -30 39 -34 63 -5 34 -34 67 -247 281 -286 287 -275 277 -318 283 -20 3 -45
18 -63 37 -17 18 -79 77 -137 133 -85 81 -114 103 -145 108 -29 5 -55 23 -109
74 -54 51 -78 68 -103 69 -24 2 -50 18 -103 68 -56 52 -77 65 -102 65 -23 0
-41 9 -66 35 -26 27 -42 35 -68 35 -28 0 -46 11 -97 59 -42 38 -75 61 -97 65
-19 3 -49 17 -68 31 -35 26 -121 55 -164 55 -14 0 -41 13 -60 31 -20 17 -51
33 -73 36 -21 3 -47 14 -59 24 -24 22 -106 49 -150 49 -17 0 -43 9 -57 20 -34
27 -101 50 -143 50 -20 0 -51 11 -72 24 -20 14 -66 30 -102 37 -36 6 -81 20
-101 30 -32 16 -65 23 -219 46 -19 3 -43 12 -52 20 -12 11 -52 19 -120 25 -56
4 -129 13 -163 18 -33 5 -88 10 -123 10 -45 0 -70 5 -90 19 -25 18 -52 19
-347 23 -176 2 -419 2 -540 -1z"/>
<path d="M72529 46271 c-162 -5 -200 -9 -215 -22 -13 -12 -47 -18 -109 -22
-176 -11 -279 -27 -307 -47 -17 -12 -43 -20 -69 -20 -39 0 -104 -9 -226 -32
-28 -5 -57 -16 -63 -24 -7 -7 -24 -14 -39 -14 -43 0 -133 -28 -163 -50 -15
-11 -43 -20 -62 -20 -44 0 -146 -37 -153 -56 -3 -8 -19 -14 -37 -14 -45 0
-135 -26 -155 -44 -10 -9 -40 -23 -67 -31 -27 -8 -62 -26 -78 -40 -17 -15 -41
-25 -59 -25 -20 0 -42 -12 -68 -35 -28 -25 -49 -35 -71 -35 -22 0 -42 -9 -63
-30 -20 -19 -47 -33 -71 -37 -24 -4 -53 -19 -77 -39 -26 -24 -47 -34 -70 -34
-25 0 -42 -9 -66 -34 -22 -23 -47 -37 -73 -41 -29 -5 -56 -22 -103 -67 -47
-43 -74 -61 -101 -65 -38 -6 -76 -34 -143 -105 -27 -29 -43 -38 -68 -38 -28 0
-49 -15 -145 -107 -61 -60 -126 -123 -144 -140 -23 -23 -42 -33 -63 -33 -27 0
-64 -33 -291 -260 -225 -226 -260 -264 -260 -291 0 -21 -11 -41 -37 -68 -107
-107 -211 -219 -226 -241 -9 -13 -17 -35 -17 -47 0 -15 -26 -51 -70 -99 -54
-58 -70 -82 -70 -105 0 -19 -12 -42 -35 -68 -19 -21 -35 -46 -35 -55 0 -9 -8
-16 -18 -16 -20 0 -37 -24 -46 -67 -4 -18 -23 -51 -42 -75 -22 -28 -34 -54
-34 -74 0 -21 -10 -40 -35 -64 -26 -25 -35 -42 -35 -67 0 -24 -10 -44 -35 -72
-26 -28 -35 -48 -35 -73 0 -25 -8 -42 -30 -63 -19 -18 -33 -43 -37 -68 -3 -21
-11 -44 -18 -51 -17 -17 -41 -65 -49 -100 -4 -15 -16 -40 -27 -55 -20 -27 -49
-119 -49 -157 0 -12 -9 -31 -20 -44 -11 -13 -23 -35 -26 -49 -3 -14 -10 -39
-15 -55 -5 -16 -9 -40 -9 -53 0 -13 -9 -36 -19 -51 -19 -26 -51 -169 -51 -226
0 -15 -9 -39 -20 -54 -18 -25 -34 -98 -47 -211 -3 -25 -14 -56 -24 -70 -14
-20 -19 -48 -21 -119 -3 -89 -1 -94 22 -113 14 -11 35 -24 48 -29 14 -6 311
-10 749 -10 708 0 728 1 768 20 23 11 57 39 75 62 30 37 36 56 55 162 12 70
28 133 39 148 10 15 25 63 34 105 8 43 23 89 34 102 22 28 48 112 48 155 0 21
10 41 30 59 18 18 31 44 36 70 3 24 19 56 34 74 15 17 31 49 35 71 4 26 18 51
41 73 26 25 34 41 34 68 0 29 9 43 49 82 58 56 77 83 84 124 4 19 34 60 87
115 91 95 120 135 120 166 0 24 382 414 405 414 8 0 15 8 15 18 0 20 24 37 68
47 30 6 136 93 202 166 14 15 44 32 68 38 36 10 138 86 162 122 3 4 22 10 43
14 21 4 56 23 78 41 24 20 52 34 68 34 14 0 42 13 62 29 19 16 54 34 77 40 22
6 54 22 70 36 16 13 47 27 70 31 26 4 50 17 68 35 21 22 37 29 64 29 52 0 134
26 155 50 11 12 31 20 49 20 61 0 202 30 227 49 26 19 37 21 254 41 100 9 138
17 165 33 34 21 44 21 475 22 436 0 440 0 470 -22 29 -21 110 -33 328 -50 39
-3 70 -13 92 -27 19 -13 64 -28 105 -35 39 -6 83 -20 98 -31 15 -11 63 -27
106 -36 44 -9 91 -25 105 -35 31 -22 114 -49 155 -49 19 0 42 -12 67 -35 28
-25 48 -35 72 -35 24 0 41 -8 61 -29 18 -19 43 -32 70 -37 31 -5 56 -20 103
-65 43 -40 74 -60 99 -65 26 -5 58 -26 106 -70 48 -44 80 -65 105 -70 27 -5
57 -27 120 -87 45 -45 83 -89 83 -99 0 -11 7 -18 20 -18 10 0 38 -18 62 -40
27 -25 53 -40 69 -40 35 0 125 -87 134 -132 8 -35 30 -62 222 -261 102 -106
123 -133 123 -158 0 -29 18 -52 123 -161 9 -10 17 -31 17 -47 0 -18 13 -44 34
-70 19 -23 38 -56 41 -73 4 -18 18 -48 32 -65 13 -18 30 -53 37 -78 8 -24 26
-59 40 -76 14 -17 26 -40 26 -52 0 -12 9 -35 20 -52 11 -16 24 -37 29 -45 6
-8 17 -50 26 -92 9 -42 24 -87 34 -100 9 -13 25 -59 34 -102 9 -43 25 -91 34
-105 10 -15 25 -73 34 -138 19 -127 39 -167 90 -177 17 -3 371 -6 786 -6 627
0 759 2 788 14 55 23 71 73 36 117 -10 14 -21 48 -24 79 -20 196 -28 247 -46
270 -10 14 -21 45 -24 70 -3 25 -10 76 -16 114 -5 38 -18 81 -28 95 -11 14
-25 58 -32 96 -14 71 -26 105 -43 116 -5 3 -16 39 -24 80 -17 84 -32 129 -45
129 -4 0 -15 23 -23 51 -9 29 -27 67 -41 85 -14 18 -25 45 -25 59 0 16 -14 43
-34 67 -26 30 -35 49 -35 77 1 45 -21 105 -55 155 -14 21 -26 46 -26 55 0 23
-31 70 -78 116 -27 28 -43 54 -48 80 -4 22 -21 57 -39 78 -18 21 -38 57 -44
80 -7 30 -28 60 -71 105 -46 47 -60 69 -60 91 0 23 -18 49 -82 118 -44 48 -89
94 -100 101 -10 7 -18 25 -18 40 0 15 -9 41 -19 57 -19 31 -629 646 -825 833
-85 81 -113 102 -136 102 -22 0 -46 16 -99 66 -121 115 -143 132 -178 139 -19
3 -51 21 -71 39 -23 21 -52 36 -79 41 -27 4 -48 15 -60 31 -27 38 -104 91
-142 99 -19 4 -48 20 -65 36 -17 15 -47 31 -68 34 -20 4 -52 20 -70 36 -18 16
-50 32 -70 35 -21 4 -50 17 -65 30 -16 14 -49 31 -76 39 -26 8 -54 21 -63 29
-8 9 -32 20 -52 26 -20 5 -53 21 -73 34 -20 14 -70 33 -110 42 -41 9 -88 25
-106 35 -33 20 -129 49 -164 49 -11 0 -32 9 -47 20 -28 21 -156 50 -218 50
-20 0 -47 9 -63 21 -28 21 -153 48 -220 49 -19 0 -43 8 -53 17 -19 17 -113 31
-323 49 -50 5 -89 14 -105 25 -22 15 -62 18 -370 21 -190 3 -433 2 -541 -1z"/>
<path d="M84604 46271 c-157 -5 -195 -9 -210 -22 -14 -12 -48 -18 -129 -23
-173 -9 -330 -30 -356 -48 -13 -8 -46 -18 -74 -21 -121 -14 -176 -27 -201 -46
-15 -12 -38 -21 -52 -21 -53 0 -198 -32 -222 -49 -14 -9 -61 -25 -105 -34 -44
-10 -92 -27 -107 -38 -15 -10 -42 -22 -60 -25 -18 -4 -49 -19 -68 -34 -22 -17
-53 -30 -80 -33 -72 -8 -103 -18 -136 -42 -17 -13 -49 -28 -72 -34 -22 -7 -54
-22 -69 -35 -15 -13 -44 -27 -63 -31 -19 -4 -51 -19 -70 -34 -19 -15 -53 -32
-76 -39 -23 -7 -58 -25 -79 -42 -21 -16 -44 -30 -52 -30 -19 0 -75 -29 -93
-49 -45 -48 -93 -81 -119 -81 -22 0 -47 -17 -104 -70 -52 -48 -83 -70 -100
-70 -29 0 -96 -51 -182 -139 -47 -48 -68 -63 -98 -68 -34 -5 -74 -41 -349
-312 -379 -374 -488 -492 -488 -527 0 -18 -28 -54 -105 -135 -87 -91 -105
-115 -105 -140 0 -25 -15 -47 -70 -106 -67 -72 -70 -77 -70 -124 0 -42 -3 -49
-19 -49 -27 0 -99 -85 -112 -133 -6 -22 -23 -56 -39 -76 -15 -20 -31 -52 -35
-71 -4 -19 -20 -50 -35 -70 -16 -19 -31 -51 -35 -70 -4 -19 -20 -50 -35 -70
-15 -19 -30 -50 -34 -68 -3 -18 -17 -47 -30 -65 -13 -18 -28 -45 -31 -62 -4
-16 -18 -46 -31 -66 -14 -20 -32 -71 -41 -115 -9 -43 -24 -90 -34 -104 -23
-31 -49 -114 -49 -157 0 -18 -4 -33 -8 -33 -14 0 -40 -69 -53 -140 -7 -36 -20
-76 -29 -90 -10 -14 -25 -75 -35 -142 -10 -65 -21 -118 -25 -118 -14 0 -29
-54 -33 -120 -3 -36 -10 -111 -18 -168 -10 -81 -10 -105 0 -115 9 -9 187 -13
782 -15 423 -1 784 1 801 6 53 13 87 66 97 151 5 40 16 80 25 89 15 18 44 132
53 216 3 28 14 57 24 67 10 10 25 43 34 73 9 30 22 60 30 66 15 13 42 95 49
152 3 23 16 49 35 69 22 22 31 42 31 64 0 23 10 43 35 69 24 26 35 47 35 68 0
23 14 46 60 96 40 44 64 79 71 106 7 28 31 63 75 110 49 53 64 76 64 99 0 25
20 51 113 146 288 297 405 411 430 420 15 6 27 17 27 24 0 7 38 50 84 95 67
66 89 82 114 82 23 0 46 15 99 64 46 43 83 68 110 75 22 6 52 22 66 35 15 14
43 30 64 38 55 18 103 50 141 92 25 27 40 36 65 36 38 0 131 32 167 58 14 10
43 23 65 30 23 6 50 21 62 32 12 11 32 20 45 20 46 1 141 29 162 48 11 11 39
22 61 25 127 16 193 30 215 46 27 19 36 21 215 40 84 9 117 17 140 34 30 21
35 21 470 22 435 0 440 0 470 -22 24 -17 50 -22 130 -27 146 -9 245 -25 286
-46 36 -19 115 -36 214 -47 29 -3 57 -13 67 -23 19 -20 111 -50 152 -50 14 0
45 -13 68 -30 22 -16 50 -30 62 -30 12 0 41 -14 65 -30 24 -17 51 -30 60 -30
9 0 41 -16 70 -35 30 -18 67 -37 84 -41 16 -3 49 -21 72 -39 24 -18 58 -35 77
-39 18 -3 47 -19 64 -35 17 -16 49 -33 71 -38 32 -6 61 -28 138 -100 72 -70
107 -95 138 -104 47 -12 127 -83 127 -111 0 -11 8 -18 18 -18 10 0 119 -102
245 -228 196 -196 229 -234 234 -265 4 -30 26 -58 104 -140 81 -84 98 -108 99
-133 0 -22 11 -44 34 -70 19 -22 38 -54 41 -72 3 -19 21 -55 39 -80 18 -26 36
-60 40 -77 4 -16 21 -47 37 -69 16 -22 29 -47 29 -56 0 -22 29 -80 39 -80 5 0
19 -31 31 -69 12 -38 28 -72 36 -75 8 -3 14 -13 14 -21 0 -40 33 -154 49 -172
10 -11 21 -37 24 -59 18 -136 42 -234 57 -234 4 0 11 -20 14 -44 8 -53 33 -88
80 -110 30 -14 113 -16 794 -16 504 0 769 4 789 10 30 11 30 12 21 58 -5 26
-12 93 -17 149 -5 68 -13 109 -23 120 -9 10 -18 38 -21 63 -14 108 -36 203
-52 220 -10 11 -19 34 -21 52 -10 97 -29 187 -47 218 -11 19 -28 71 -38 114
-9 44 -26 91 -37 105 -11 15 -23 42 -27 61 -4 19 -17 49 -30 65 -12 17 -25 48
-29 70 -11 66 -37 139 -57 160 -9 11 -21 34 -24 50 -4 17 -21 51 -37 77 -16
26 -34 63 -39 82 -5 19 -20 48 -33 63 -13 16 -29 47 -35 71 -8 26 -31 62 -64
98 -32 35 -55 70 -60 92 -8 39 -33 72 -52 72 -7 0 -15 20 -19 48 -5 39 -17 60
-63 115 -31 37 -60 67 -64 67 -5 0 -12 18 -15 40 -7 44 -42 87 -188 238 -67
67 -86 93 -86 115 0 35 -24 61 -388 423 -238 236 -279 273 -311 278 -30 4 -56
25 -134 101 -93 91 -127 115 -165 115 -10 0 -60 41 -112 90 -67 64 -106 94
-135 102 -22 7 -58 26 -80 44 -22 17 -57 34 -77 37 -26 4 -47 17 -69 42 -34
38 -98 79 -140 89 -14 3 -35 14 -47 25 -13 10 -37 24 -55 31 -17 6 -43 18 -57
26 -68 38 -120 58 -165 62 -38 4 -59 13 -89 38 -27 23 -50 34 -72 34 -17 0
-37 7 -45 16 -22 27 -67 44 -131 50 -40 4 -70 13 -83 25 -32 29 -91 49 -143
49 -36 0 -54 5 -67 20 -20 22 -107 50 -154 50 -18 0 -44 9 -59 20 -24 18 -76
29 -212 47 -25 3 -56 14 -69 24 -15 12 -41 19 -70 19 -25 0 -93 7 -151 15 -58
8 -135 15 -171 15 -46 0 -70 5 -79 15 -7 8 -26 17 -44 19 -53 8 -620 13 -822
7z"/>
<path d="M64555 40230 c-13 -15 -15 -619 -15 -5678 l0 -5661 22 -15 c20 -14
256 -16 2318 -16 1892 1 2298 3 2313 14 16 13 17 295 17 5678 0 5383 -1 5666
-17 5680 -16 14 -265 16 -2320 15 -2146 0 -2304 -1 -2318 -17z"/>
<path d="M76520 40235 c-7 -8 -9 -1871 -8 -5664 l3 -5651 35 -30 35 -30 2330
0 c1800 0 2334 3 2343 12 18 18 17 11351 0 11366 -20 15 -4725 13 -4738 -3z"/>
<path d="M38933 32028 l-23 -11 0 -4133 c0 -4076 0 -4133 19 -4144 30 -16
6413 -14 6429 2 16 16 18 8249 2 8279 -11 19 -57 19 -3208 18 -2277 0 -3203
-3 -3219 -11z"/>
<path d="M100606 32024 c-8 -21 -8 -8257 0 -8278 6 -15 298 -16 3209 -16 1761
0 3217 3 3234 6 l31 7 0 4138 c0 4081 0 4138 -19 4149 -14 7 -1037 10 -3234
10 -2922 0 -3215 -1 -3221 -16z"/>
<path d="M58150 22573 c-25 -14 -46 -27 -48 -29 -4 -2 -134 -324 -449 -1104
-118 -294 -243 -605 -278 -690 -69 -170 -839 -2078 -1105 -2740 -92 -228 -243
-602 -335 -830 -92 -228 -235 -581 -317 -785 -82 -203 -251 -622 -375 -930
-463 -1151 -647 -1536 -881 -1848 -95 -126 -267 -304 -365 -378 -90 -69 -258
-154 -382 -194 -96 -32 -245 -68 -252 -62 -2 3 10 166 26 363 17 198 60 701
96 1119 36 418 72 846 81 952 9 105 14 198 11 205 -3 10 -34 19 -88 26 -45 7
-83 11 -84 9 -1 -1 -34 -132 -75 -291 -73 -288 -73 -289 -183 -530 -102 -222
-123 -259 -267 -476 -179 -266 -282 -392 -497 -601 -179 -174 -298 -258 -528
-369 -183 -89 -276 -127 -533 -216 -453 -158 -788 -210 -1282 -201 -334 6
-501 28 -755 99 -423 118 -750 331 -899 585 -129 221 -203 574 -246 1163 -22
317 -30 764 -30 1859 l0 1143 348 -5 c370 -5 516 -17 739 -63 639 -130 999
-438 1202 -1026 73 -212 145 -545 167 -766 l7 -73 91 7 c50 3 94 8 99 11 4 2
7 890 7 1974 l0 1969 -89 0 c-77 0 -90 -3 -95 -17 -3 -10 -26 -137 -51 -283
-66 -377 -89 -458 -190 -675 -58 -125 -112 -200 -211 -296 -215 -207 -583
-381 -969 -458 -223 -45 -320 -53 -692 -58 l-363 -5 0 2102 0 2101 1118 -4
c1193 -4 1193 -4 1503 -57 335 -57 592 -140 861 -276 620 -316 1023 -862 1308
-1774 24 -74 43 -136 44 -137 2 -3 168 26 172 30 5 4 -169 2358 -182 2475 l-5
52 -3825 0 -3824 0 0 -100 0 -99 33 -6 c17 -3 78 -12 135 -20 454 -66 795
-222 956 -436 134 -178 215 -443 261 -849 34 -301 36 -598 32 -3585 -4 -3197
-2 -3072 -57 -3414 -54 -330 -128 -508 -267 -644 -316 -308 -610 -429 -1080
-444 l-173 -6 0 -103 0 -104 5600 0 5600 0 0 103 0 104 -192 6 c-329 11 -592
63 -770 153 -72 36 -215 181 -256 261 -92 176 -96 406 -12 751 46 190 121 407
260 757 108 272 458 1153 634 1600 l52 130 1601 3 c1595 2 1602 2 1613 -18 17
-31 737 -1762 782 -1880 163 -424 245 -745 255 -1005 5 -133 3 -160 -16 -235
-59 -233 -208 -343 -591 -435 -106 -25 -374 -68 -507 -81 l-73 -7 0 -103 0
-104 4375 0 4375 0 0 103 0 104 -152 6 c-245 9 -487 59 -647 133 -194 89 -461
314 -545 456 -97 167 -167 488 -195 906 -8 104 -11 1392 -11 3973 l0 3819 343
0 c369 0 513 -11 747 -54 505 -94 959 -294 1253 -550 153 -134 329 -356 437
-551 18 -33 62 -112 98 -175 155 -271 289 -631 397 -1060 l42 -165 101 -3 c97
-3 102 -2 102 18 0 11 -9 122 -20 248 -11 125 -56 652 -100 1172 -44 520 -89
1048 -100 1174 -11 126 -20 236 -20 243 0 11 -703 13 -4029 13 l-4030 0 -6
-42 c-3 -24 -57 -617 -120 -1318 -63 -701 -116 -1286 -118 -1300 -2 -25 -2
-25 94 -28 l96 -3 41 128 c22 70 71 223 108 338 72 226 118 328 244 539 152
255 339 503 563 747 181 197 351 331 547 433 135 70 223 101 373 131 242 48
372 57 970 62 l558 5 -4 -3863 c-3 -2913 -6 -3894 -15 -3984 -42 -418 -90
-633 -185 -825 -46 -93 -131 -187 -277 -306 -295 -241 -504 -308 -950 -308
-196 0 -227 2 -350 27 -203 42 -277 64 -368 113 -181 95 -463 337 -574 490
-162 226 -354 593 -570 1089 -141 324 -3202 7673 -3229 7754 -16 47 -39 100
-52 118 -19 28 -28 33 -62 33 -25 0 -57 -10 -85 -27z m-403 -2250 c56 -137
163 -396 239 -578 75 -181 151 -366 169 -410 18 -44 118 -287 223 -540 104
-253 308 -746 452 -1095 145 -349 275 -665 291 -702 l28 -68 -1501 0 c-1424 0
-1500 1 -1496 18 3 9 128 316 278 682 150 366 296 724 325 795 29 72 173 423
320 780 146 358 332 811 412 1008 81 196 149 357 153 357 3 0 51 -111 107
-247z"/>
<path d="M37520 22470 l0 -99 33 -5 c17 -3 84 -13 147 -22 315 -43 537 -102
705 -187 89 -45 198 -147 293 -272 116 -153 204 -385 231 -610 15 -120 15
-6436 1 -6675 -30 -490 -141 -899 -311 -1145 -54 -78 -164 -188 -257 -257
-191 -141 -438 -213 -787 -227 l-160 -6 -3 -102 -3 -103 2236 0 2235 0 0 105
c0 105 0 105 -24 105 -76 0 -425 72 -581 120 -265 80 -507 218 -606 342 -142
180 -233 462 -284 877 -30 250 -36 617 -33 2101 l3 1465 305 -1 c321 0 484
-11 690 -45 395 -66 687 -193 896 -391 280 -266 458 -691 548 -1308 l23 -155
101 -3 102 -3 0 1991 0 1990 -93 0 -94 0 -6 -167 c-15 -373 -74 -655 -179
-843 -105 -190 -321 -403 -562 -554 -302 -189 -777 -273 -1496 -264 l-235 3
-3 2073 -2 2073 1087 -4 c1177 -4 1191 -4 1538 -62 280 -47 496 -112 700 -210
193 -93 337 -199 439 -324 129 -158 487 -670 569 -812 62 -108 170 -416 227
-646 24 -100 47 -173 54 -172 6 0 47 6 91 12 76 11 80 13 83 39 2 15 -13 210
-32 435 -124 1406 -176 2013 -176 2027 0 15 -298 16 -3705 16 l-3705 0 0 -100z"/>
<path d="M69982 22463 l3 -107 120 -17 c291 -41 554 -131 709 -242 64 -46 161
-142 196 -192 104 -152 185 -419 224 -740 39 -315 39 -319 46 -3210 7 -3037 5
-2910 55 -3274 71 -514 205 -820 480 -1096 159 -160 361 -300 685 -473 525
-280 1199 -453 2000 -513 212 -16 865 -16 1085 0 865 62 1449 237 1870 560
181 139 578 596 783 901 206 308 282 563 333 1120 9 88 14 946 19 2935 5 2014
10 2838 19 2910 76 659 187 917 475 1100 165 105 441 192 704 221 l62 7 0 108
0 109 -1510 0 -1510 0 0 -104 0 -103 31 -7 c17 -3 66 -6 108 -6 232 -1 511
-70 680 -170 144 -84 339 -267 422 -394 121 -185 186 -518 209 -1076 13 -313
13 -4884 0 -5220 -23 -598 -83 -907 -235 -1206 -184 -363 -567 -747 -941 -941
-311 -162 -778 -275 -1294 -314 -196 -15 -709 -6 -915 16 -524 55 -928 176
-1210 362 -208 138 -506 444 -669 687 -176 264 -234 477 -288 1061 -16 185
-24 5453 -8 5710 36 572 139 954 306 1134 191 206 513 331 899 347 66 3 135 7
153 10 l32 5 0 104 0 105 -2065 0 -2066 0 3 -107z"/>
<path d="M80520 22470 c0 -115 -19 -100 156 -124 438 -59 798 -214 937 -404
114 -155 211 -439 256 -747 48 -331 46 -201 46 -3550 0 -3294 1 -3236 -41
-3525 -37 -256 -100 -478 -176 -623 -48 -90 -154 -210 -250 -282 -195 -146
-444 -228 -748 -243 l-125 -7 -3 -102 -3 -103 2141 0 2141 0 -3 103 -3 102
-150 6 c-245 11 -461 57 -607 130 -104 52 -233 135 -319 205 -191 156 -335
511 -394 969 -32 255 -35 401 -35 1773 l0 1382 473 0 c777 0 1092 -31 1419
-141 250 -83 427 -194 567 -354 41 -47 183 -267 304 -470 265 -448 599 -1247
787 -1885 141 -477 530 -1809 530 -1814 0 -3 2339 -6 5199 -6 l5199 0 6 53 c3
28 24 268 46 532 23 264 52 608 65 765 82 942 126 1478 123 1500 -3 26 -4 26
-130 44 -37 6 -48 4 -48 -6 0 -37 -144 -572 -169 -628 -156 -352 -196 -427
-344 -650 -185 -276 -228 -331 -437 -544 -232 -237 -342 -316 -622 -450 -329
-158 -758 -299 -1078 -355 -273 -48 -702 -66 -961 -41 -727 72 -1272 362
-1453 773 -104 238 -168 614 -207 1237 -7 106 -13 700 -16 1504 l-5 1328 349
-5 c371 -5 515 -17 740 -63 599 -122 959 -406 1162 -918 60 -150 116 -345 155
-538 21 -102 56 -341 56 -379 l0 -31 93 8 c50 3 95 8 100 11 4 2 7 890 7 1974
l0 1969 -90 0 c-85 0 -90 -1 -95 -22 -2 -13 -27 -153 -55 -313 -56 -317 -90
-437 -179 -627 -65 -140 -111 -206 -212 -303 -99 -95 -148 -131 -289 -213
-243 -141 -541 -236 -900 -288 -82 -11 -218 -18 -477 -21 l-363 -5 0 2102 0
2101 1118 -4 c1208 -4 1199 -4 1530 -62 710 -124 1239 -428 1606 -923 207
-279 380 -634 520 -1067 25 -77 48 -153 52 -168 4 -16 12 -26 18 -24 7 3 42 8
78 12 36 4 71 10 77 15 13 8 15 -13 -54 895 -14 176 -45 595 -70 930 -25 336
-48 631 -51 658 l-6 47 -3824 0 -3824 0 0 -100 0 -99 33 -5 c17 -3 93 -15 167
-27 432 -68 757 -215 915 -417 175 -222 266 -597 295 -1217 8 -159 10 -1153 8
-3210 -4 -2678 -6 -2996 -21 -3140 -40 -389 -89 -602 -181 -780 -49 -95 -147
-197 -306 -316 -183 -138 -371 -219 -606 -260 -223 -38 -386 -23 -660 62 -293
91 -426 208 -577 506 -89 177 -109 233 -341 975 -261 836 -380 1145 -636 1663
-171 347 -293 554 -442 753 -85 112 -376 409 -473 482 -115 85 -295 162 -518
220 -54 14 -83 26 -75 31 7 4 191 76 407 159 425 164 407 154 671 344 211 151
464 366 576 489 217 239 359 601 408 1037 61 548 0 965 -203 1386 -123 255
-238 413 -460 634 -231 229 -485 419 -706 525 -334 161 -782 257 -1370 295
-101 6 -1070 10 -2652 10 l-2493 0 0 -100z m4260 -220 c311 -19 583 -64 766
-125 255 -85 518 -257 785 -512 224 -215 339 -418 424 -749 109 -422 121 -989
30 -1425 -170 -812 -737 -1396 -1568 -1614 -363 -95 -595 -115 -1364 -115
l-513 0 0 2275 0 2275 638 0 c350 0 711 -5 802 -10z"/>
<path d="M98580 22470 c0 -55 1 -100 3 -100 1 0 67 -11 147 -24 566 -95 898
-280 1050 -584 96 -193 163 -511 190 -902 14 -199 13 -6193 0 -6390 -37 -524
-128 -862 -285 -1062 -168 -214 -529 -364 -1027 -426 l-143 -18 -3 -103 -3
-102 2713 4 c1888 3 2756 8 2853 15 623 51 957 113 1376 260 548 191 1155 538
1595 912 231 197 575 568 746 806 210 293 396 679 538 1119 433 1342 339 2830
-256 4035 -242 490 -536 900 -1004 1399 -349 372 -589 561 -939 738 -540 274
-1163 419 -2161 505 -96 8 -886 12 -2762 15 l-2628 4 0 -101z m5213 -215 c485
-51 899 -195 1257 -435 323 -217 764 -650 1145 -1125 360 -449 590 -1051 704
-1840 102 -708 106 -1638 10 -2405 -76 -611 -204 -1080 -409 -1495 -161 -326
-310 -521 -611 -801 -609 -564 -978 -832 -1333 -969 -311 -120 -566 -164
-1071 -186 -601 -27 -1050 40 -1365 202 -145 75 -348 246 -465 392 -137 171
-186 317 -222 672 -15 157 -17 468 -20 4088 l-4 3917 1123 0 c915 0 1149 -3
1261 -15z"/>
</g>
</svg>
